<svg width="25" height="24" viewBox="0 0 25 24" fill="none" xmlns="http://www.w3.org/2000/svg">
<path d="M19.7891 16C20.3391 16 20.7891 16.45 20.7891 17V19C20.7891 19.3782 20.5763 19.7091 20.2646 19.8789C20.123 19.9561 19.9609 20 19.7891 20H5.78906C5.23906 20 4.78906 19.55 4.78906 19V17C4.78906 16.45 5.23906 16 5.78906 16C6.33906 16 6.78906 16.45 6.78906 17V18H18.7891V17C18.7891 16.45 19.2391 16 19.7891 16ZM12.7891 3C13.3421 3 13.7891 3.448 13.7891 4V11.999L16.1895 10.2002C16.6314 9.86733 17.2579 9.95844 17.5889 10.4004C17.9207 10.8424 17.8306 11.4688 17.3887 11.7998L13.3887 14.7998C13.2117 14.9327 13 15 12.7891 15C12.5881 15 12.3869 14.9393 12.2139 14.8184L8.21387 12.0039C7.76214 11.686 7.65308 11.0622 7.9707 10.6113C8.2887 10.1593 8.91226 10.0502 9.36426 10.3682L11.792 12.0752C11.7901 12.0504 11.7891 12.0253 11.7891 12V4C11.7891 3.448 12.2361 3 12.7891 3Z" fill="#343C44"/>
</svg>
