<svg width="25" height="24" viewBox="0 0 25 24" fill="none" xmlns="http://www.w3.org/2000/svg">
<path fill-rule="evenodd" clip-rule="evenodd" d="M11.6656 17.457L13.6916 18.99V14.437C13.6916 14.271 13.7336 14.108 13.8116 13.962L18.1116 6H7.43164L11.5536 13.978C11.6276 14.12 11.6656 14.278 11.6656 14.437V17.457ZM14.6923 22C14.4793 22 14.2663 21.932 14.0893 21.797L10.0633 18.752C9.81329 18.563 9.66629 18.268 9.66629 17.955V14.681L4.90129 5.459C4.74029 5.149 4.75329 4.778 4.93529 4.48C5.11629 4.182 5.44029 4 5.78929 4H19.7893C20.1413 4 20.4673 4.185 20.6483 4.488C20.8283 4.79 20.8363 5.165 20.6693 5.475L15.6923 14.69V21C15.6923 21.379 15.4783 21.726 15.1383 21.895C14.9973 21.965 14.8443 22 14.6923 22Z" fill="currentColor"/>
</svg>
