<svg width="7" height="12" viewBox="0 0 7 12" fill="none" xmlns="http://www.w3.org/2000/svg">
<path d="M1.13042 9.73735C0.82699 10.1008 0.876705 10.6408 1.24014 10.9442C1.60357 11.2477 2.14444 11.1979 2.44701 10.8345L6.73278 6.54874C6.76707 6.50845 6.78335 6.46045 6.80907 6.41588C6.82964 6.38074 6.85364 6.34988 6.86907 6.31131C6.9085 6.21102 6.93164 6.10645 6.93164 6.00016C6.93164 5.89387 6.9085 5.7893 6.86907 5.68901C6.85364 5.65044 6.82964 5.61958 6.80907 5.58444C6.78335 5.53987 6.76707 5.49187 6.73278 5.45158L2.44701 1.16581C2.14443 0.801521 1.60357 0.752663 1.24014 1.0561C0.876704 1.35867 0.826989 1.89868 1.13042 2.26297L4.24446 5.14301L5.10154 6.00008L4.24238 6.85924L1.13042 9.73735Z" fill="currentColor"/>
</svg>
