<svg width="7" height="12" viewBox="0 0 7 12" fill="none" xmlns="http://www.w3.org/2000/svg">
<path d="M6.73286 2.26265C7.03629 1.89922 6.98658 1.35921 6.62314 1.05578C6.25971 0.752344 5.71885 0.802059 5.41627 1.16549L1.1305 5.45126C1.09621 5.49155 1.07993 5.53955 1.05421 5.58412C1.03364 5.61926 1.00964 5.65012 0.994213 5.68869C0.954784 5.78898 0.931641 5.89355 0.931641 5.99984C0.931641 6.10613 0.954784 6.2107 0.994213 6.31099C1.00964 6.34956 1.03364 6.38042 1.05421 6.41556C1.07993 6.46013 1.09621 6.50813 1.1305 6.54842L5.41627 10.8342C5.71885 11.1985 6.25971 11.2473 6.62314 10.9439C6.98658 10.6413 7.03629 10.1013 6.73286 9.73703L3.61882 6.85699L2.76174 5.99992L3.6209 5.14076L6.73286 2.26265Z" fill="#D59A04"/>
</svg>
