<svg width="15" height="14" viewBox="0 0 15 14" fill="none" xmlns="http://www.w3.org/2000/svg">
<path d="M9.97656 5.25H11.0703C11.3604 5.25 11.6386 5.36523 11.8437 5.57035C12.0488 5.77547 12.1641 6.05367 12.1641 6.34375V11.5938C12.1641 11.8838 12.0488 12.162 11.8437 12.3671C11.6386 12.5723 11.3604 12.6875 11.0703 12.6875H4.50781C4.21773 12.6875 3.93953 12.5723 3.73441 12.3671C3.5293 12.162 3.41406 11.8838 3.41406 11.5938V6.34375C3.41406 6.05367 3.5293 5.77547 3.73441 5.57035C3.93953 5.36523 4.21773 5.25 4.50781 5.25H5.60156M9.97656 3.5L7.78906 1.3125M7.78906 1.3125L5.60156 3.5M7.78906 1.3125V8.77734" stroke="currentColor" stroke-linecap="round" stroke-linejoin="round"/>
</svg>
